<?xml version="1.0" encoding="UTF-8"?>
<svg width="21px" height="21px" viewBox="0 0 21 21" version="1.1" xmlns="http://www.w3.org/2000/svg" xmlns:xlink="http://www.w3.org/1999/xlink">
    <!-- Generator: Sketch 48.1 (47250) - http://www.bohemiancoding.com/sketch -->
    <title>删除</title>
    <desc>Created with Sketch.</desc>
    <defs></defs>
    <g id="封面-copy" stroke="none" stroke-width="1" fill="none" fill-rule="evenodd" transform="translate(-347.000000, -616.000000)" opacity="0.404834692">
        <g id="删除" transform="translate(347.000000, 616.000000)" fill="#FFFFFF" fill-rule="nonzero">
            <path d="M10.5,0 C4.7277487,0 0,4.7277487 0,10.5 C0,16.2722513 4.7277487,21 10.5,21 C16.2722513,21 21,16.3272251 21,10.5 C21,4.67277486 16.2722513,0 10.5,0 Z M15.3376963,14.1832461 C15.6675393,14.513089 15.6675393,15.0078534 15.3376963,15.3376963 C15.1727749,15.5026178 14.9528796,15.5575916 14.7329843,15.5575916 C14.513089,15.5575916 14.2931937,15.5026178 14.1282723,15.3376963 L10.4450262,11.6544503 L6.7617801,15.3376963 C6.59685862,15.5026178 6.37696334,15.5575916 6.15706806,15.5575916 C5.93717278,15.5575916 5.71727749,15.5026178 5.55235602,15.3376963 C5.2225131,15.0078534 5.2225131,14.513089 5.55235602,14.1832461 L9.23560209,10.5 L5.55235602,6.81675393 C5.2225131,6.48691101 5.2225131,5.99214661 5.55235602,5.66230366 C5.88219894,5.33246071 6.37696334,5.33246074 6.70680629,5.66230366 L10.3900524,9.34554973 L14.0732984,5.66230366 C14.4031414,5.33246074 14.8979057,5.33246074 15.2277487,5.66230366 C15.5575916,5.99214658 15.5575916,6.48691098 15.2277487,6.81675393 L11.5445026,10.5 L15.3376963,14.1832461 Z" id="Shape"></path>
        </g>
    </g>
</svg>