<?xml version="1.0" encoding="UTF-8"?>
<svg width="123px" height="118px" viewBox="0 0 123 118" version="1.1" xmlns="http://www.w3.org/2000/svg" xmlns:xlink="http://www.w3.org/1999/xlink">
    <!-- Generator: Sketch 48.1 (47250) - http://www.bohemiancoding.com/sketch -->
    <title>Group 6</title>
    <desc>Created with Sketch.</desc>
    <defs>
        <rect id="path-1" x="23" y="0" width="1" height="3" rx="0.5"></rect>
        <rect id="path-2" x="15" y="4" width="1" height="3" rx="0.5"></rect>
        <rect id="path-3" x="11.9016575" y="11.9263389" width="1" height="3" rx="0.5"></rect>
        <rect id="path-4" x="27" y="42" width="61" height="40"></rect>
        <rect id="path-5" x="25" y="35" width="65" height="43"></rect>
        <rect id="path-6" x="21" y="11" width="73" height="63"></rect>
        <rect id="path-7" x="53" y="60" width="10" height="2" rx="1"></rect>
        <rect id="path-8" x="21" y="11" width="73" height="17"></rect>
        <rect id="path-9" x="0" y="0" width="7" height="9" rx="1"></rect>
        <rect id="path-10" x="12" y="0" width="7" height="9" rx="1"></rect>
        <rect id="path-11" x="25" y="0" width="7" height="9" rx="1"></rect>
        <rect id="path-12" x="38" y="0" width="7" height="9" rx="1"></rect>
        <rect id="path-13" x="50" y="0" width="7" height="9" rx="1"></rect>
    </defs>
    <g id="分享1-copy" stroke="none" stroke-width="1" fill="none" fill-rule="evenodd" transform="translate(-129.000000, -224.000000)">
        <g id="Group-6" transform="translate(130.000000, 216.000000)">
            <text id="0" font-family="Monaco" font-size="30" font-weight="normal" letter-spacing="3.33333325" fill="#848484">
                <tspan x="50" y="33">0</tspan>
            </text>
            <text id="4" font-family="Monaco" font-size="30" font-weight="normal" letter-spacing="3.33333302" fill="#848484">
                <tspan x="75" y="33">4</tspan>
            </text>
            <text id="4" font-family="Monaco" font-size="34" font-weight="normal" letter-spacing="3.77777767" fill="#848484">
                <tspan x="22" y="34">4</tspan>
            </text>
            <g id="Group-4" opacity="0.8" transform="translate(0.000000, 44.000000)">
                <g id="Rectangle-11">
                    <use fill="#D8D8D8" fill-rule="evenodd" xlink:href="#path-1"></use>
                    <rect stroke="#979797" stroke-width="1" x="23.5" y="0.5" width="1" height="2" rx="0.5"></rect>
                </g>
                <g id="Rectangle-11" transform="translate(15.500000, 5.500000) rotate(-44.000000) translate(-15.500000, -5.500000) ">
                    <use fill="#D8D8D8" fill-rule="evenodd" xlink:href="#path-2"></use>
                    <rect stroke="#979797" stroke-width="1" x="15.5" y="4.5" width="1" height="2" rx="0.5"></rect>
                </g>
                <g id="Rectangle-11" transform="translate(12.401657, 13.426339) rotate(-95.000000) translate(-12.401657, -13.426339) ">
                    <use fill="#D8D8D8" fill-rule="evenodd" xlink:href="#path-3"></use>
                    <rect stroke="#979797" stroke-width="1" x="12.4016575" y="12.4263389" width="1" height="2" rx="0.5"></rect>
                </g>
                <path d="M14,75.5 C7.66666667,69.8333333 5.5,65.5 7.5,62.5 C10.5,58 16,57.625 14,63 C12,68.375 4.5,67.8197144 1.5,64.5 C-1.5,61.1802856 1.5,55.5 8.5,53.5 C15.5,51.5 34.5,56.5 41.5,60 C48.5,63.5 94,64.5 100,63 C106,61.5 114.5,56 113.5,49.5 C112.5,43 106.5,42.5 104.5,44 C102.5,45.5 102.5,47.5 103.5,49.5 C104.5,51.5 110.176727,56.3921026 116.5,47.5 C122.823273,38.6078974 120.5,30 120,28.5" id="Path-3" stroke="#C0C0C0" stroke-dasharray="3,1"></path>
                <g id="Rectangle-7">
                    <use fill="#F7F7F7" fill-rule="evenodd" xlink:href="#path-4"></use>
                    <rect stroke="#979797" stroke-width="1.5" x="27.75" y="42.75" width="59.5" height="38.5"></rect>
                </g>
                <g id="Rectangle-7">
                    <use fill="#F7F7F7" fill-rule="evenodd" xlink:href="#path-5"></use>
                    <rect stroke="#979797" stroke-width="1.5" x="25.75" y="35.75" width="63.5" height="41.5"></rect>
                </g>
                <g id="Rectangle-7">
                    <use fill="#F7F7F7" fill-rule="evenodd" xlink:href="#path-6"></use>
                    <rect stroke="#979797" stroke-width="1.5" x="21.75" y="11.75" width="71.5" height="61.5"></rect>
                </g>
                <circle id="Oval" stroke="#979797" fill="#959595" cx="34.5" cy="48.5" r="1.5"></circle>
                <circle id="Oval" stroke="#979797" fill="#959595" cx="82.5" cy="48.5" r="1.5"></circle>
                <g id="Rectangle-9">
                    <use fill="#D8D8D8" fill-rule="evenodd" xlink:href="#path-7"></use>
                    <rect stroke="#979797" stroke-width="1" x="53.5" y="60.5" width="9" height="1" rx="0.5"></rect>
                </g>
                <rect id="Rectangle-7" fill="#EBEDEF" x="22.5" y="13" width="70" height="17"></rect>
                <g id="Rectangle-7">
                    <use fill="#FA755D" fill-rule="evenodd" xlink:href="#path-8"></use>
                    <rect stroke="#979797" stroke-width="1.5" x="21.75" y="11.75" width="71.5" height="15.5"></rect>
                </g>
                <path d="M22.5,22.5 L92.5,22.5" id="Line" stroke="#979797" stroke-width="1.5" stroke-linecap="square" stroke-dasharray="4,2"></path>
                <g id="Group-5" transform="translate(29.000000, 8.000000)">
                    <g id="Rectangle-8">
                        <use fill="#F8F8F8" fill-rule="evenodd" xlink:href="#path-9"></use>
                        <rect stroke="#979797" stroke-width="1" x="0.5" y="0.5" width="6" height="8" rx="1"></rect>
                    </g>
                    <g id="Rectangle-8">
                        <use fill="#F8F8F8" fill-rule="evenodd" xlink:href="#path-10"></use>
                        <rect stroke="#979797" stroke-width="1" x="12.5" y="0.5" width="6" height="8" rx="1"></rect>
                    </g>
                    <g id="Rectangle-8">
                        <use fill="#F8F8F8" fill-rule="evenodd" xlink:href="#path-11"></use>
                        <rect stroke="#979797" stroke-width="1" x="25.5" y="0.5" width="6" height="8" rx="1"></rect>
                    </g>
                    <g id="Rectangle-8">
                        <use fill="#F8F8F8" fill-rule="evenodd" xlink:href="#path-12"></use>
                        <rect stroke="#979797" stroke-width="1" x="38.5" y="0.5" width="6" height="8" rx="1"></rect>
                    </g>
                    <g id="Rectangle-8">
                        <use fill="#F8F8F8" fill-rule="evenodd" xlink:href="#path-13"></use>
                        <rect stroke="#979797" stroke-width="1" x="50.5" y="0.5" width="6" height="8" rx="1"></rect>
                    </g>
                </g>
            </g>
            <text id="?" transform="translate(119.340876, 62.784405) rotate(-23.000000) translate(-119.340876, -62.784405) " font-family="Monaco" font-size="25" font-weight="normal" letter-spacing="2.77777791" fill="#CDCDCD">
                <tspan x="110.340876" y="72.2844054">?</tspan>
            </text>
        </g>
    </g>
</svg>